# xmcd
#
# Track frame offsets: 
#        150
#        15941
#        34320
#        53994
#        70302
#        87235
#        101386
#        168272
#        184521
#        198351
#        213664
#        226598
#        242953
#
# Disc length: 3457 seconds
#
# Revision: 0
# Processed by: cddbd v1.5.2PL0 Copyright (c) Steve Scherf et al.
# Submitted via: ExactAudioCopy v0.99pb5
#
DISCID=a40d7f0d
DTITLE=Hal Ketchum - One More Midnight
DYEAR=2007
DGENRE=Country
TTITLE0=One More Midnight
TTITLE1=Just This Side Of Heaven
TTITLE2=Travelin' Teardrop Blues
TTITLE3=Save Tonight For Me
TTITLE4=Gonna Start Livin' Again
TTITLE5=Alamo
TTITLE6=Poor Lila's Ghost
TTITLE7=My Love Will Not Change
TTITLE8=Forever Mine
TTITLE9=One Of The Things-With Katie Cook
TTITLE10=The Moment
TTITLE11=Little Red Dress
TTITLE12=Medal of Honor
EXTD=
EXTT0=
EXTT1=
EXTT2=
EXTT3=
EXTT4=
EXTT5=
EXTT6=
EXTT7=
EXTT8=
EXTT9=
EXTT10=
EXTT11=
EXTT12=
PLAYORDER=
